<?xml version="1.0" encoding="utf-8"?>
<!-- Generator: Adobe Illustrator 16.0.0, SVG Export Plug-In . SVG Version: 6.00 Build 0)  -->
<!DOCTYPE svg PUBLIC "-//W3C//DTD SVG 1.1//EN" "http://www.w3.org/Graphics/SVG/1.1/DTD/svg11.dtd">
<svg version="1.1" id="Layer_1" xmlns="http://www.w3.org/2000/svg" xmlns:xlink="http://www.w3.org/1999/xlink" x="0px" y="0px"
	 width="512px" height="512px" viewBox="0 0 512 512" enable-background="new 0 0 512 512" xml:space="preserve">
<g>
	<path fill="#FFFFFF" d="M272.966,257.182c0,73.309,0,146.616-0.001,219.925c0,15.074-7.195,21.214-21.975,19.094
		c-47.594-6.827-95.203-13.557-142.806-20.324c-16.633-2.365-33.291-4.563-49.89-7.144c-24.714-3.845-41.278-23.699-41.285-49.295
		c-0.026-105.131-0.023-210.262,0.018-315.392c0.002-6.479-0.427-12.965,0.725-19.439c3.729-20.941,20.311-36.631,41.458-39.593
		c43.655-6.113,87.279-12.449,130.917-18.693c21.248-3.041,42.491-6.124,63.748-9.103c11.122-1.559,19.079,5.78,19.081,17.539
		C272.975,108.899,272.966,183.041,272.966,257.182z M192.976,256.686c0,5.482-0.119,10.969,0.027,16.449
		c0.237,8.901,7.289,15.813,15.946,15.824c8.673,0.012,15.822-6.855,15.976-15.773c0.186-10.799,0.181-21.603,0.003-32.399
		c-0.147-8.922-7.271-15.802-15.941-15.81c-8.715-0.009-15.727,6.819-15.98,15.759C192.854,246.047,192.978,251.368,192.976,256.686
		z"/>
	<path fill="#FFFFFF" d="M441.185,272.967c-1.762,0-3.521,0-5.284,0c-37.985,0-75.972,0.038-113.958-0.021
		c-12.182-0.021-20.062-10.913-15.906-21.73c2.496-6.499,8.289-10.228,16.166-10.235c27.989-0.026,55.979-0.011,83.969-0.011
		c11.637,0,23.273,0,35.005,0c0.04-2.021-1.543-2.655-2.498-3.618c-10.44-10.526-20.953-20.986-31.425-31.483
		c-7.793-7.813-8.38-17.462-1.516-24.254c6.721-6.65,16.325-6.103,23.901,1.459c20.399,20.362,40.782,40.74,61.141,61.145
		c8.273,8.294,8.354,17.109,0.168,25.325c-20.463,20.535-40.969,41.025-61.492,61.497c-7.496,7.478-17.269,7.871-23.899,1.099
		c-6.628-6.771-6.037-16.309,1.529-23.897c10.351-10.384,20.705-20.765,31.133-31.069c1.128-1.115,2.756-1.725,4.152-2.568
		C441.975,274.057,441.58,273.512,441.185,272.967z"/>
	<path fill="#FFFFFF" d="M348.544,48.993c11.821,0.001,23.641-0.054,35.46,0.012C412.002,49.16,432.774,69.966,432.938,98
		c0.058,9.988,0.058,19.978-0.006,29.966c-0.061,9.765-6.773,16.921-15.823,17.009c-9.256,0.09-16.099-7.15-16.148-17.188
		c-0.049-9.822,0.027-19.645-0.021-29.467c-0.054-10.766-6.648-17.304-17.515-17.317c-24.639-0.032-49.278-0.1-73.917,0.084
		c-3.744,0.027-4.79-0.901-4.641-4.651c0.313-7.813,0.277-15.652,0.01-23.468c-0.117-3.416,1.081-4.081,4.213-4.042
		C322.238,49.085,335.393,48.993,348.544,48.993z"/>
	<path fill="#FFFFFF" d="M348.408,464.942c-13.152,0-26.309-0.121-39.457,0.083c-3.377,0.053-4.146-1.027-4.061-4.195
		c0.213-7.819,0.334-15.66-0.039-23.468c-0.191-4.022,1.313-4.515,4.796-4.493c24.307,0.143,48.614,0.084,72.923,0.071
		c12.207-0.008,18.359-6.203,18.376-18.474c0.012-9.49-0.042-18.98,0.015-28.471c0.059-9.814,6.688-16.926,15.771-17.038
		c9.266-0.114,16.322,7.112,16.158,17.13c-0.215,13.131,1.257,26.334-0.869,39.381c-3.582,21.979-22.875,38.804-45.155,39.361
		c-12.813,0.321-25.638,0.059-38.457,0.059C348.408,464.907,348.408,464.925,348.408,464.942z"/>
</g>
</svg>
