<?xml version="1.0" encoding="utf-8"?>
<!-- Generator: Adobe Illustrator 16.0.0, SVG Export Plug-In . SVG Version: 6.00 Build 0)  -->
<!DOCTYPE svg PUBLIC "-//W3C//DTD SVG 1.1//EN" "http://www.w3.org/Graphics/SVG/1.1/DTD/svg11.dtd">
<svg version="1.1" id="Layer_1" xmlns="http://www.w3.org/2000/svg" xmlns:xlink="http://www.w3.org/1999/xlink" x="0px" y="0px"
	 width="512px" height="512px" viewBox="0 0 512 512" enable-background="new 0 0 512 512" xml:space="preserve" fill="#2B4889">
<g>
	<path fill-rule="evenodd" clip-rule="evenodd" d="M313.688,59.36c-0.127-5.454,2.455-8.517,9.029-9.434
		c12.315-1.72,24.669-3.166,37.002-4.764c27.424-3.554,54.854-7.069,82.263-10.74c7.992-1.071,11.483,1.094,12.545,9.224
		c3.75,28.711,7.33,57.444,10.984,86.168c3.933,30.933,7.89,61.863,11.809,92.799c3.5,27.621,6.957,55.247,10.445,82.869
		c3.583,28.36,7.18,56.718,10.775,85.075c2.662,20.993,5.373,41.979,7.965,62.979c0.698,5.654-2.568,9.499-9.09,10.431
		c-12.31,1.758-24.659,3.236-36.993,4.822c-27.431,3.532-54.873,6.993-82.292,10.629c-8.145,1.08-11.738-1.488-12.781-9.687
		c-5.834-45.848-11.758-91.686-17.544-137.541c-5.763-45.672-11.344-91.366-17.107-137.038
		c-5.391-42.725-10.918-85.432-16.365-128.15C314.027,64.608,313.922,62.188,313.688,59.36z M412.25,128.854
		c-11.564,1.43-22.249,2.615-32.861,4.256c-1.2,0.185-2.993,3.058-2.836,4.5c1.667,15.316,3.678,30.595,5.586,45.884
		c3.611,28.914,7.206,57.831,10.836,86.744c1.033,8.223,2.169,16.433,3.343,25.299c12.365-1.589,24.048-3.09,36.381-4.674
		C425.855,236.65,419.101,183.133,412.25,128.854z M426.569,418.828c18.802,0.221,35.66-16.783,35.903-36.214
		c0.254-20.255-16.001-36.974-36-37.031c-20.111-0.057-36.686,16.32-36.819,36.38C389.518,402.256,405.87,418.585,426.569,418.828z
		 M362.952,99.501c17.357-2.313,35.549-4.567,53.675-7.254c5.441-0.808,8.568-5.764,7.721-10.469
		c-0.915-5.077-5.526-8.472-11.083-7.882c-5.153,0.546-10.272,1.401-15.414,2.061c-12.124,1.555-24.261,3.015-36.375,4.632
		c-5.909,0.79-9.662,4.83-9.462,9.804C352.22,95.481,356.61,99.433,362.952,99.501z"/>
	<path fill-rule="evenodd" clip-rule="evenodd" d="M7.249,265.307c0-66.766-0.001-133.529,0.002-200.294
		c0-10.628,2.504-13.129,13.137-13.13c38.869-0.004,77.737-0.008,116.605,0.001c9.822,0.003,12.548,2.739,12.548,12.611
		c0.005,134.272,0.005,268.545,0,402.818c0,9.835-2.749,12.578-12.588,12.58c-39.054,0.011-78.108,0.011-117.163,0
		c-9.81-0.002-12.538-2.75-12.539-12.619C7.245,399.951,7.249,332.629,7.249,265.307z M96.176,301.608c0-53.937,0-107.201,0-160.53
		c-12.117,0-23.867,0-35.558,0c0,53.74,0,107.004,0,160.53C72.596,301.608,84.213,301.608,96.176,301.608z M78.265,426.883
		c20.137,0.02,36.109-15.904,36.123-36.017c0.014-20.086-15.972-35.988-36.154-35.968c-19.83,0.021-35.776,15.919-35.83,35.722
		C42.349,410.831,58.204,426.864,78.265,426.883z M78.448,105.45c8.557,0,17.113,0.066,25.668-0.023
		c6.363-0.066,10.273-3.695,10.244-9.245c-0.029-5.529-3.947-9.103-10.355-9.126c-17.112-0.063-34.225-0.069-51.336,0.002
		c-6.394,0.027-10.266,3.654-10.236,9.235c0.029,5.53,3.942,9.076,10.348,9.136C61.335,105.511,69.892,105.45,78.448,105.45z"/>
	<path fill-rule="evenodd" clip-rule="evenodd" d="M310.264,265.732c0,66.949,0.001,133.899-0.002,200.851
		c0,10.875-2.481,13.313-13.533,13.313c-38.683,0.003-77.365,0.005-116.048-0.002c-9.925-0.003-12.709-2.722-12.709-12.449
		c-0.006-134.459-0.006-268.918,0.001-403.376c0-9.396,2.848-12.182,12.404-12.185c39.24-0.01,78.481-0.012,117.721,0.001
		c9.368,0.003,12.16,2.863,12.161,12.438C310.267,131.459,310.264,198.595,310.264,265.732z M221.256,301.535
		c12.207,0,23.825,0,35.565,0c0-53.747,0-107.142,0-160.581c-12.054,0-23.672,0-35.565,0
		C221.256,194.568,221.256,247.832,221.256,301.535z M203.122,390.974c0.029,20.092,16.049,35.978,36.213,35.909
		c20.034-0.067,35.845-16.146,35.771-36.369c-0.073-19.752-16.057-35.587-35.95-35.615
		C219.038,354.871,203.093,370.834,203.122,390.974z M239.116,87.034c-8.556,0-17.112-0.062-25.668,0.021
		c-6.399,0.062-10.294,3.625-10.297,9.177c-0.003,5.549,3.899,9.167,10.287,9.194c17.112,0.068,34.225,0.068,51.336,0
		c6.38-0.025,10.302-3.649,10.305-9.184c0.004-5.541-3.91-9.126-10.294-9.187C256.229,86.972,247.672,87.034,239.116,87.034z"/>
	<path fill-rule="evenodd" clip-rule="evenodd" d="M443.178,381.817c0.002,9.649-7.704,17.457-17.254,17.48
		c-9.559,0.024-17.237-7.737-17.249-17.434c-0.011-9.545,7.479-17.438,16.57-17.462
		C435.355,364.378,443.175,371.974,443.178,381.817z"/>
	<path fill-rule="evenodd" clip-rule="evenodd" d="M78.394,408.441c-9.261,0-17.456-8.136-17.548-17.424
		c-0.096-9.521,8.328-17.876,17.819-17.679c9.344,0.196,17.38,8.423,17.277,17.688C95.839,400.348,87.684,408.441,78.394,408.441z"
		/>
	<path fill-rule="evenodd" clip-rule="evenodd" d="M239.082,408.441c-9.271-0.022-17.447-8.169-17.518-17.454
		c-0.073-9.526,8.365-17.868,17.85-17.648c9.349,0.218,17.37,8.46,17.246,17.719C256.536,400.387,248.369,408.464,239.082,408.441z"
		/>
</g>
</svg>
