<?xml version="1.0" encoding="utf-8"?>
<!-- Generator: Adobe Illustrator 16.0.0, SVG Export Plug-In . SVG Version: 6.00 Build 0)  -->
<!DOCTYPE svg PUBLIC "-//W3C//DTD SVG 1.1//EN" "http://www.w3.org/Graphics/SVG/1.1/DTD/svg11.dtd">
<svg version="1.1" id="Layer_1" xmlns="http://www.w3.org/2000/svg" xmlns:xlink="http://www.w3.org/1999/xlink" x="0px" y="0px"
	 width="512px" height="512px" viewBox="0 0 512 512" enable-background="new 0 0 512 512" xml:space="preserve">
<g>
	<path fill="#FFFFFF" d="M1,512.936c0-84.988,0-169.979,0-254.968c78.312,0.001,156.623,0.046,234.934-0.112
		c4.509-0.011,5.39,1.217,5.382,5.494c-0.138,71.813-0.154,143.627,0.021,215.439c0.012,4.979-1.107,6.259-6.203,6.243
		c-65.981-0.198-131.963-0.057-197.944-0.271c-5.407-0.018-6.673,1.568-6.297,6.572c0.436,5.799-0.071,11.662,0.17,17.484
		c0.131,3.185-0.697,4.294-4.072,4.196C18.333,512.77,9.665,512.935,1,512.936z M120.985,328.538
		c24.161,0,48.323-0.062,72.484,0.069c3.39,0.019,4.677-0.77,4.534-4.395c-0.282-7.152-0.236-14.331-0.013-21.488
		c0.099-3.188-0.732-4.289-4.093-4.283c-48.489,0.101-96.979,0.103-145.468-0.002c-3.439-0.008-4.193,1.224-4.104,4.354
		c0.195,6.826,0.289,13.673-0.026,20.489c-0.188,4.073,0.931,5.395,5.201,5.356C73.327,328.432,97.156,328.539,120.985,328.538z
		 M120.978,353.133c-23.965,0-47.932,0.084-71.896-0.088c-3.734-0.025-4.926,0.953-4.771,4.721
		c0.285,6.979,0.253,13.981,0.009,20.963c-0.121,3.467,0.926,4.53,4.448,4.49c15.809-0.179,31.62-0.076,47.431-0.076
		c32.287,0,64.574-0.068,96.86,0.088c3.896,0.019,5.155-0.955,4.951-4.934c-0.34-6.641-0.333-13.32-0.003-19.962
		c0.201-4.052-0.873-5.344-5.133-5.306C168.909,353.243,144.943,353.133,120.978,353.133z M182.892,412.884
		c-8.235-0.012-14.9,6.572-14.963,14.781c-0.064,8.354,6.905,15.333,15.165,15.186c8.037-0.143,14.863-7.124,14.8-15.137
		C197.83,419.605,191.042,412.896,182.892,412.884z"/>
	<path fill="#FFFFFF" d="M272.966,1c79.989,0,159.979,0,239.97,0c0,73.822-0.051,147.645,0.113,221.466
		c0.011,4.661-1.298,5.609-5.727,5.602c-76.322-0.138-152.645-0.138-228.965,0.001c-4.451,0.009-5.762-0.972-5.752-5.626
		c0.162-72.155,0.111-144.311,0.123-216.466C272.729,4.318,272.884,2.659,272.966,1z M392.954,71.67
		c23.966,0,47.932-0.079,71.896,0.083c3.728,0.025,4.936-0.979,4.779-4.75c-0.286-6.978-0.263-13.983-0.006-20.963
		c0.129-3.507-0.972-4.497-4.464-4.466c-18.64,0.161-37.278,0.075-55.919,0.075c-29.623,0-59.247,0.057-88.87-0.074
		c-3.455-0.015-4.585,0.87-4.438,4.411c0.283,6.812,0.319,13.655-0.007,20.462c-0.193,4.047,0.854,5.366,5.134,5.327
		C345.023,71.559,368.989,71.67,392.954,71.67z M392.976,96.165c-23.966,0-47.932,0.109-71.896-0.102
		c-4.233-0.037-5.357,1.21-5.152,5.286c0.335,6.641,0.332,13.322,0,19.962c-0.196,3.943,0.998,4.984,4.932,4.954
		c24.131-0.183,48.263-0.092,72.396-0.092c23.966,0,47.933-0.068,71.896,0.075c3.493,0.021,4.592-0.977,4.467-4.47
		c-0.248-6.981-0.271-13.985,0.007-20.964c0.15-3.737-0.99-4.766-4.752-4.739C440.908,96.25,416.941,96.165,392.976,96.165z
		 M469.479,171.08c0.134-8.136-6.5-14.997-14.644-15.149c-8.239-0.153-15.012,6.275-15.245,14.473
		c-0.24,8.404,6.486,15.435,14.82,15.492C462.473,185.951,469.346,179.193,469.479,171.08z"/>
	<path fill="#FFFFFF" d="M1,227.971C1,153.727,1.033,79.482,0.9,5.238c-0.006-3.622,0.769-4.34,4.352-4.334
		C83.824,1.03,162.397,1,240.97,1c0.082,0.991,0.235,1.983,0.235,2.974c0.012,73.261-0.035,146.523,0.125,219.785
		c0.01,4.382-1.967,4.25-5.06,4.248C157.846,227.959,79.423,227.97,1,227.971z M121.557,71.67c23.965,0,47.931-0.062,71.895,0.07
		c3.375,0.019,4.699-0.728,4.55-4.371c-0.285-6.979-0.356-13.992,0.021-20.96c0.224-4.137-1.312-4.852-5.034-4.836
		c-30.289,0.134-60.579,0.075-90.868,0.075c-17.642,0-35.284,0.137-52.922-0.102c-4.087-0.055-5.045,1.268-4.89,5.069
		c0.28,6.813,0.301,13.654-0.007,20.463c-0.176,3.886,1.243,4.691,4.86,4.668C73.293,71.599,97.425,71.67,121.557,71.67z
		 M121.494,126.173c23.799,0,47.599-0.11,71.396,0.103c4.236,0.037,5.339-1.189,5.122-5.278c-0.353-6.638-0.336-13.322-0.004-19.961
		c0.199-3.969-1.036-4.986-4.966-4.962c-28.292,0.17-56.584,0.091-84.877,0.091c-19.639,0-39.278,0.122-58.915-0.1
		c-4.063-0.046-5.097,1.22-4.938,5.063c0.282,6.812,0.308,13.654-0.01,20.463c-0.181,3.856,1.145,4.688,4.796,4.663
		C73.229,126.097,97.362,126.173,121.494,126.173z M183.065,185.896c8.046-0.124,14.877-7.082,14.829-15.103
		c-0.051-8.33-7.068-15.069-15.474-14.86c-8.18,0.203-14.646,7.009-14.491,15.253C168.08,179.284,175.012,186.021,183.065,185.896z"
		/>
	<path fill="#FFFFFF" d="M512.934,385.807c0,40.647-0.056,81.295,0.091,121.941c0.014,3.938-0.601,5.563-5.021,5.3
		c-7.14-0.425-14.324-0.24-21.481-0.052c-2.816,0.073-3.735-0.719-3.644-3.602c0.207-6.489-0.229-13.01,0.169-19.48
		c0.265-4.276-1.142-5.118-5.219-5.109c-65.634,0.138-131.271,0.098-196.904,0.098c-0.833,0-1.683-0.108-2.496,0.018
		c-4.356,0.681-5.904-0.732-5.834-5.507c0.299-19.985,0.127-39.979,0.127-59.969c0-52.142,0.053-104.283-0.104-156.425
		c-0.012-4.205,1.097-5.152,5.214-5.146c76.796,0.132,153.592,0.134,230.388-0.006c4.102-0.007,4.807,1.271,4.795,4.999
		C512.887,303.848,512.934,344.827,512.934,385.807z M392.931,328.539c23.828,0,47.657-0.105,71.483,0.1
		c4.241,0.035,5.427-1.232,5.222-5.337c-0.323-6.481-0.417-13.015,0.025-19.483c0.319-4.653-1.427-5.412-5.635-5.398
		c-44.823,0.146-89.646,0.092-134.471,0.092c-3.333,0-6.677,0.159-9.995-0.047c-2.905-0.181-3.667,0.977-3.603,3.74
		c0.167,7.161,0.31,14.341-0.042,21.488c-0.201,4.074,1.197,4.953,5.03,4.929C344.941,328.458,368.936,328.539,392.931,328.539z
		 M392.377,353.133c-23.965,0-47.931,0.063-71.896-0.07c-3.369-0.02-4.694,0.701-4.548,4.354c0.288,7.146,0.205,14.313,0.027,21.464
		c-0.076,3.032,0.487,4.349,3.998,4.34c48.429-0.116,96.859-0.118,145.289,0c3.633,0.009,4.469-1.218,4.361-4.571
		c-0.223-6.982-0.288-13.987,0.021-20.965c0.173-3.896-1.248-4.654-4.857-4.631C440.642,353.207,416.509,353.133,392.377,353.133z
		 M469.479,427.978c0.099-8.137-6.545-14.96-14.695-15.094c-8.232-0.136-14.981,6.314-15.191,14.521
		c-0.214,8.384,6.567,15.435,14.869,15.459C462.496,442.887,469.381,436.063,469.479,427.978z"/>
	<path fill="#FFFFFF" d="M256.672,512.931c-3.817,0-7.645-0.165-11.449,0.058c-2.706,0.156-3.357-0.854-3.302-3.4
		c0.153-7.134,0.171-14.274-0.007-21.408c-0.067-2.689,0.848-3.354,3.401-3.308c7.798,0.146,15.603,0.165,23.4-0.008
		c2.7-0.061,3.354,0.864,3.301,3.41c-0.152,7.134-0.173,14.274,0.008,21.407c0.066,2.69-0.844,3.424-3.403,3.301
		C264.646,512.791,260.654,512.932,256.672,512.931z"/>
</g>
</svg>
