<?xml version="1.0" encoding="utf-8"?>
<!-- Generator: Adobe Illustrator 16.0.0, SVG Export Plug-In . SVG Version: 6.00 Build 0)  -->
<!DOCTYPE svg PUBLIC "-//W3C//DTD SVG 1.1//EN" "http://www.w3.org/Graphics/SVG/1.1/DTD/svg11.dtd">
<svg version="1.1" id="Layer_1" xmlns="http://www.w3.org/2000/svg" xmlns:xlink="http://www.w3.org/1999/xlink" x="0px" y="0px"
	 width="512px" height="512px" viewBox="0 0 512 512" enable-background="new 0 0 512 512" xml:space="preserve">
<g>
	<path fill="#FFFFFF" d="M79.916,9.284c89.01,0,178.02,0,267.029,0c9.222,3.8,11.517,10.95,11.501,20.457
		c-0.205,123.156-0.136,246.312-0.138,369.467c0,12.927-5.207,18.115-18.179,18.115c-84.469,0.002-168.936,0.002-253.404,0
		c-12.969,0-18.175-5.188-18.175-18.115C68.55,276.052,68.621,152.896,68.41,29.74C68.395,20.218,70.73,13.105,79.916,9.284z
		 M213.385,140.619c-28.358,0-56.716-0.009-85.074,0.02c-1.917,0.001-3.91-0.007-5.739,0.476c-7.254,1.916-11.75,8.685-10.91,16.113
		c0.837,7.395,7.076,12.876,15.046,12.882c57.844,0.039,115.688,0.024,173.532-0.003c1.428-0.001,2.908-0.159,4.271-0.557
		c7.25-2.113,11.652-8.899,10.668-16.276c-0.966-7.233-7.08-12.607-14.787-12.625C271.391,140.585,242.388,140.623,213.385,140.619z
		 M213.378,228.182c28.681,0,57.362,0.02,86.042-0.011c9.292-0.01,15.753-6.026,15.832-14.58
		c0.082-8.794-6.401-14.909-15.975-14.912c-57.198-0.019-114.398-0.014-171.598,0.011c-1.752,0.001-3.576,0.061-5.245,0.524
		c-7.259,2.019-11.69,8.798-10.765,16.21c0.9,7.212,7.047,12.706,14.701,12.725C155.374,228.221,184.376,228.178,213.378,228.182z
		 M213.433,286.232c28.519,0,57.038,0.013,85.558-0.008c9.696-0.008,16.206-5.906,16.262-14.637
		c0.056-8.79-6.424-14.855-16.026-14.859c-57.2-0.019-114.398-0.015-171.599,0.013c-1.751,0.001-3.574,0.073-5.242,0.545
		c-7.259,2.048-11.668,8.841-10.712,16.241c0.932,7.207,7.082,12.656,14.752,12.674C155.427,286.27,184.43,286.229,213.433,286.232z
		 M169.856,112.082c14.333,0,28.666,0.049,42.999-0.018c8.864-0.042,15.251-6.21,15.323-14.586
		c0.073-8.613-6.348-14.877-15.492-14.892c-28.505-0.043-57.01-0.042-85.515-0.001c-9.14,0.012-15.604,6.255-15.563,14.822
		c0.042,8.55,6.509,14.633,15.733,14.663C141.512,112.115,155.684,112.083,169.856,112.082z M271.504,314.771
		c-9.498,0-18.997-0.054-28.495,0.016c-8.83,0.063-15.243,6.242-15.302,14.591c-0.059,8.407,6.293,14.84,15.011,14.877
		c19.156,0.082,38.315,0.08,57.472,0.002c8.758-0.036,15.104-6.415,15.063-14.831c-0.04-8.385-6.416-14.57-15.253-14.638
		C290.5,314.715,281.003,314.771,271.504,314.771z"/>
	<path fill="#FFFFFF" d="M155.625,446.839c2.456,0,4.354,0,6.251,0c59.97,0,119.94,0.008,179.911-0.004
		c27.498-0.006,46.031-18.563,46.034-46.1c0.009-98.821,0.004-197.645,0.004-296.467c0-2.055,0-4.109,0-6.698
		c12.183,0,23.924,0.458,35.615-0.109c16.592-0.805,22.157,5.119,22.113,22.196c-0.315,122.197-0.168,244.395-0.17,366.592
		c0,12.951-5.198,18.148-18.147,18.148c-84.476,0.002-168.948,0.002-253.423,0c-12.981,0-18.184-5.183-18.187-18.105
		C155.623,473.402,155.625,460.514,155.625,446.839z"/>
</g>
</svg>
