<?xml version="1.0" encoding="utf-8"?>
<!-- Generator: Adobe Illustrator 16.0.0, SVG Export Plug-In . SVG Version: 6.00 Build 0)  -->
<!DOCTYPE svg PUBLIC "-//W3C//DTD SVG 1.1//EN" "http://www.w3.org/Graphics/SVG/1.1/DTD/svg11.dtd">
<svg version="1.1" id="Layer_1" xmlns="http://www.w3.org/2000/svg" xmlns:xlink="http://www.w3.org/1999/xlink" x="0px" y="0px"
	 width="512px" height="512px" viewBox="0 0 512 512" enable-background="new 0 0 512 512" xml:space="preserve">
<g>
	<path fill-rule="evenodd" clip-rule="evenodd" fill="#2B4889" d="M272.966,257.182c0,73.308,0,146.616-0.001,219.924
		c0,15.075-7.196,21.214-21.975,19.094c-47.594-6.827-95.203-13.556-142.806-20.324c-16.633-2.365-33.291-4.563-49.89-7.144
		c-24.714-3.844-41.278-23.699-41.285-49.295c-0.026-105.131-0.023-210.261,0.018-315.391c0.002-6.479-0.427-12.965,0.725-19.439
		c3.729-20.941,20.311-36.631,41.458-39.593c43.655-6.113,87.279-12.449,130.917-18.693c21.248-3.041,42.491-6.124,63.748-9.102
		c11.122-1.559,19.079,5.78,19.081,17.539C272.974,108.899,272.966,183.041,272.966,257.182z M192.976,256.686
		c0,5.482-0.119,10.969,0.027,16.449c0.237,8.901,7.289,15.813,15.946,15.824c8.673,0.012,15.822-6.856,15.976-15.774
		c0.186-10.798,0.181-21.602,0.003-32.399c-0.147-8.922-7.271-15.802-15.941-15.81c-8.715-0.009-15.727,6.819-15.98,15.759
		C192.854,246.047,192.978,251.368,192.976,256.686z"/>
	<path fill-rule="evenodd" clip-rule="evenodd" fill="#2C4889" d="M441.185,272.967c-1.762,0-3.522,0-5.285,0
		c-37.985,0-75.971,0.038-113.958-0.022c-12.181-0.02-20.061-10.913-15.906-21.73c2.496-6.499,8.289-10.228,16.166-10.235
		c27.989-0.026,55.979-0.011,83.969-0.011c11.637,0,23.273,0,35.005,0c0.04-2.021-1.543-2.655-2.498-3.618
		c-10.441-10.526-20.953-20.986-31.425-31.483c-7.793-7.813-8.38-17.462-1.516-24.254c6.721-6.65,16.326-6.103,23.902,1.459
		c20.399,20.362,40.782,40.74,61.14,61.145c8.274,8.294,8.355,17.109,0.168,25.325c-20.463,20.535-40.968,41.026-61.492,61.497
		c-7.496,7.477-17.268,7.871-23.899,1.099c-6.628-6.771-6.037-16.309,1.529-23.898c10.351-10.383,20.705-20.764,31.133-31.069
		c1.128-1.115,2.756-1.725,4.152-2.568C441.975,274.057,441.58,273.512,441.185,272.967z"/>
	<path fill-rule="evenodd" clip-rule="evenodd" fill="#2C4889" d="M348.544,48.993c11.821,0.001,23.641-0.054,35.46,0.012
		C412.002,49.16,432.774,69.966,432.937,98c0.058,9.988,0.058,19.978-0.005,29.966c-0.061,9.765-6.774,16.921-15.824,17.009
		c-9.255,0.09-16.098-7.15-16.148-17.188c-0.049-9.822,0.027-19.645-0.021-29.467c-0.053-10.766-6.648-17.304-17.514-17.317
		c-24.639-0.032-49.279-0.1-73.917,0.084c-3.745,0.027-4.79-0.901-4.641-4.651c0.313-7.813,0.278-15.652,0.01-23.468
		c-0.117-3.416,1.081-4.081,4.213-4.042C322.238,49.085,335.393,48.993,348.544,48.993z"/>
	<path fill-rule="evenodd" clip-rule="evenodd" fill="#2C4889" d="M348.408,464.942c-13.152,0-26.308-0.121-39.457,0.083
		c-3.377,0.053-4.146-1.027-4.061-4.195c0.214-7.819,0.334-15.66-0.038-23.468c-0.192-4.022,1.312-4.514,4.795-4.493
		c24.307,0.143,48.615,0.084,72.923,0.071c12.207-0.007,18.36-6.203,18.376-18.473c0.012-9.49-0.042-18.98,0.015-28.471
		c0.059-9.815,6.687-16.925,15.771-17.038c9.266-0.114,16.323,7.112,16.159,17.13c-0.215,13.131,1.256,26.334-0.87,39.381
		c-3.582,21.978-22.875,38.803-45.155,39.361c-12.812,0.321-25.638,0.059-38.457,0.059
		C348.408,464.907,348.408,464.925,348.408,464.942z"/>
</g>
</svg>
