<svg width="11" height="19" viewBox="0 0 11 19" fill="none" xmlns="http://www.w3.org/2000/svg">
<path d="M2.3 0.424999L10.725 8.825C10.825 8.925 10.8957 9.03333 10.937 9.15C10.979 9.26667 11 9.39167 11 9.525C11 9.65833 10.979 9.78333 10.937 9.9C10.8957 10.0167 10.825 10.125 10.725 10.225L2.3 18.65C2.06667 18.8833 1.775 19 1.425 19C1.075 19 0.775001 18.875 0.525001 18.625C0.275001 18.375 0.150001 18.0833 0.150001 17.75C0.150001 17.4167 0.275001 17.125 0.525001 16.875L7.875 9.525L0.525001 2.175C0.291667 1.94167 0.175 1.65433 0.175 1.313C0.175 0.971001 0.3 0.674999 0.55 0.424999C0.8 0.174999 1.09167 0.0499992 1.425 0.0499992C1.75833 0.0499992 2.05 0.174999 2.3 0.424999Z" fill="#757575"/>
</svg>
