<?xml version="1.0" encoding="utf-8"?>
<!-- Generator: Adobe Illustrator 16.0.0, SVG Export Plug-In . SVG Version: 6.00 Build 0)  -->
<!DOCTYPE svg PUBLIC "-//W3C//DTD SVG 1.1//EN" "http://www.w3.org/Graphics/SVG/1.1/DTD/svg11.dtd">
<svg version="1.1" id="Layer_1" xmlns="http://www.w3.org/2000/svg" xmlns:xlink="http://www.w3.org/1999/xlink" x="0px" y="0px"
	 width="512px" height="512px" viewBox="0 0 512 512" enable-background="new 0 0 512 512" xml:space="preserve">
<g>
	<path fill-rule="evenodd" clip-rule="evenodd" fill="#2B4889" d="M257.061,32.996c60.32,0,120.64-0.005,180.96,0.002
		c26.05,0.004,42.913,16.775,42.915,42.706c0.009,104.81,0.009,209.619,0.001,314.43c-0.002,25.979-16.837,42.749-42.822,42.852
		c-4.269,0.018-10.097-1.924-12.379,0.859c-2.154,2.629-0.709,8.237-0.777,12.535c-0.059,3.665,0.063,7.335-0.036,10.997
		c-0.35,12.87-10.404,23.386-23.195,23.478c-29.825,0.212-59.653,0.207-89.479,0.004c-12.794-0.087-22.958-10.595-23.246-23.415
		c-0.158-6.995-0.172-14,0.026-20.993c0.083-2.904-0.914-3.577-3.668-3.562c-18.995,0.108-37.992,0.126-56.986-0.013
		c-3.05-0.022-3.515,1.146-3.454,3.774c0.155,6.662,0.122,13.33,0.034,19.994c-0.184,13.938-10.458,24.225-24.469,24.267
		c-28.993,0.089-57.987,0.088-86.98,0.001c-14.224-0.043-24.39-10.416-24.507-24.735c-0.053-6.498-0.2-13.005,0.071-19.491
		c0.135-3.223-0.987-3.827-3.951-3.822c-6.476,0.012-12.972,0.574-19.435-0.676c-18.819-3.637-32.611-19.558-32.63-38.751
		c-0.104-106.976-0.121-213.95,0.008-320.926c0.027-22.4,18.028-39.474,41.041-39.495C135.088,32.96,196.075,32.996,257.061,32.996z
		 M256.783,384.951c49.654,0,99.31,0.002,148.964-0.001c17.695-0.001,27.196-9.458,27.196-27.08
		c0.004-83.313,0.004-166.626,0-249.94c-0.001-17.37-9.53-26.937-26.829-26.938c-99.311-0.004-198.619-0.003-297.929-0.001
		c-17.68,0.001-27.194,9.47-27.194,27.073c-0.003,83.313-0.003,166.627,0,249.939c0,17.34,9.563,26.944,26.827,26.946
		C157.474,384.955,207.128,384.951,256.783,384.951z"/>
	<path fill-rule="evenodd" clip-rule="evenodd" fill="#2B4889" d="M256.815,96.988c49.642,0,99.282-0.002,148.924,0.002
		c8.834,0.001,11.205,2.385,11.206,11.268c0.004,83.124,0.003,166.248,0,249.372c-0.001,8.911-2.374,11.32-11.161,11.32
		c-99.282,0.004-198.565,0.005-297.848,0c-8.485-0.001-10.945-2.481-10.946-11.026c-0.005-83.29-0.004-166.582,0-249.872
		c0-8.578,2.443-11.059,10.901-11.06C157.533,96.985,207.174,96.988,256.815,96.988z M256.433,200.975
		c41.801,0,83.601,0.003,125.401-0.003c8.584-0.001,11.106-2.463,11.112-10.864c0.013-19.485,0.015-38.97-0.001-58.455
		c-0.007-8.121-2.583-10.665-10.799-10.665c-83.436-0.007-166.87-0.006-250.304-0.001c-8.417,0.001-10.851,2.5-10.855,11.104
		c-0.008,19.318-0.01,38.636,0.001,57.955c0.005,8.47,2.485,10.924,11.042,10.925C173.497,200.979,214.965,200.975,256.433,200.975z
		 M120.985,244.582c0,6.485-0.08,12.972,0.024,19.457c0.093,5.859,3.089,8.862,9.001,8.901c12.638,0.086,25.277,0.084,37.916,0.001
		c5.909-0.039,8.978-3.043,9.022-8.886c0.096-12.637,0.084-25.276,0.006-37.914c-0.038-6.175-3.032-9.115-9.26-9.148
		c-12.472-0.067-24.945-0.067-37.417,0c-6.245,0.033-9.188,2.96-9.274,9.131C120.918,232.274,120.984,238.429,120.985,244.582z
		 M248.962,245.476c0-6.652,0.104-13.305-0.033-19.955c-0.11-5.326-3.111-8.45-8.368-8.501c-12.97-0.126-25.942-0.116-38.912-0.011
		c-5.569,0.045-8.598,3.123-8.641,8.734c-0.098,12.804-0.097,25.61-0.001,38.414c0.042,5.616,3.064,8.719,8.615,8.768
		c12.804,0.113,25.609,0.103,38.414,0.011c5.853-0.041,8.816-3.098,8.911-9.002C249.045,257.783,248.969,251.629,248.962,245.476z
		 M292.942,272.966c6.319,0,12.641,0.073,18.958-0.021c5.911-0.088,8.986-3.045,9.029-8.883c0.095-12.804,0.103-25.61-0.009-38.413
		c-0.048-5.567-3.137-8.601-8.74-8.644c-12.805-0.097-25.609-0.096-38.413-0.001c-5.627,0.042-8.714,3.056-8.762,8.613
		c-0.11,12.804-0.1,25.61-0.011,38.414c0.04,5.863,3.08,8.821,8.991,8.913C280.304,273.041,286.624,272.966,292.942,272.966z
		 M364.879,216.972c-6.152,0-12.306-0.05-18.459,0.014c-6.514,0.067-9.415,2.942-9.446,9.466
		c-0.059,12.306-0.054,24.612-0.002,36.918c0.028,6.581,2.892,9.542,9.339,9.577c12.473,0.068,24.945,0.072,37.417-0.002
		c6.19-0.037,9.163-3.016,9.2-9.218c0.075-12.471,0.072-24.944,0.003-37.416c-0.036-6.439-3.005-9.27-9.593-9.327
		C377.185,216.93,371.032,216.972,364.879,216.972z M120.991,316.453c0,6.651-0.102,13.305,0.032,19.955
		c0.107,5.319,3.103,8.446,8.369,8.499c12.97,0.129,25.942,0.119,38.913,0.011c5.551-0.046,8.594-3.146,8.639-8.752
		c0.101-12.805,0.1-25.61,0-38.414c-0.043-5.618-3.076-8.704-8.632-8.751c-12.804-0.107-25.61-0.099-38.414-0.009
		c-5.862,0.041-8.803,3.081-8.893,9.003C120.913,304.146,120.985,310.3,120.991,316.453z M192.975,316.884
		c0,6.152-0.043,12.307,0.012,18.459c0.059,6.589,2.89,9.559,9.326,9.595c12.472,0.069,24.944,0.071,37.416-0.002
		c6.2-0.036,9.18-3.007,9.218-9.2c0.076-12.473,0.069-24.945,0.003-37.416c-0.033-6.265-2.958-9.293-9.078-9.332
		c-12.638-0.08-25.277-0.083-37.915,0.003c-5.9,0.04-8.867,3.045-8.959,8.937C192.898,304.244,192.976,310.564,192.975,316.884z
		 M320.96,316.925c0-6.318,0.076-12.639-0.022-18.956c-0.093-5.907-3.056-8.937-8.927-8.978
		c-12.639-0.089-25.277-0.079-37.915-0.005c-5.966,0.035-9.052,2.98-9.097,8.792c-0.099,12.804-0.098,25.609,0.002,38.414
		c0.043,5.598,3.084,8.68,8.656,8.727c12.803,0.109,25.608,0.103,38.413,0.008c5.825-0.043,8.78-3.125,8.868-9.044
		C321.033,329.565,320.96,323.244,320.96,316.925z M336.964,316.456c0,6.651-0.102,13.306,0.033,19.955
		c0.107,5.318,3.104,8.443,8.371,8.496c12.97,0.129,25.942,0.119,38.912,0.011c5.549-0.047,8.592-3.149,8.636-8.756
		c0.101-12.805,0.1-25.609,0-38.413c-0.043-5.617-3.077-8.701-8.636-8.748c-12.803-0.107-25.608-0.1-38.413-0.009
		c-5.859,0.041-8.799,3.084-8.889,9.006C336.886,304.149,336.958,310.304,336.964,316.456z"/>
	<path fill-rule="evenodd" clip-rule="evenodd" fill="#2B4888" d="M256.91,136.983c38.466,0,76.933,0.049,115.398-0.08
		c3.563-0.012,4.835,0.613,4.75,4.539c-0.282,13.149-0.212,26.31-0.032,39.462c0.044,3.231-0.804,4.15-4.104,4.146
		c-77.265-0.096-154.53-0.091-231.795-0.013c-3.103,0.003-4.287-0.582-4.231-4.019c0.215-13.151,0.234-26.311-0.007-39.461
		c-0.068-3.707,0.845-4.683,4.622-4.667C179.978,137.043,218.444,136.983,256.91,136.983z"/>
	<path fill-rule="evenodd" clip-rule="evenodd" fill="#2B4888" d="M149.373,233.317c11.604-0.345,11.692-0.344,11.559,11.048
		c-0.048,4.082,1.857,9.486-0.845,11.866c-2.281,2.008-7.55,0.703-11.498,0.719c-11.604,0.044-11.691,0.015-11.558-11.378
		c0.048-4.081-1.86-9.511,0.848-11.854C140.136,231.765,145.426,233.317,149.373,233.317z"/>
	<path fill-rule="evenodd" clip-rule="evenodd" fill="#2B4888" d="M209.32,244.578c-0.345-11.605-0.344-11.692,11.049-11.558
		c4.081,0.048,9.486-1.857,11.865,0.845c2.008,2.28,0.704,7.551,0.719,11.498c0.044,11.604,0.015,11.692-11.378,11.557
		c-4.081-0.048-9.512,1.86-11.854-0.848C207.768,253.814,209.32,248.524,209.32,244.578z"/>
	<path fill-rule="evenodd" clip-rule="evenodd" fill="#2B4888" d="M293.414,233.274c11.546-0.302,11.639-0.301,11.496,11.153
		c-0.051,4.075,1.881,9.484-0.876,11.846c-2.33,1.996-7.571,0.665-11.525,0.679c-11.542,0.039-11.635,0.013-11.492-11.441
		c0.051-4.075-1.884-9.508,0.879-11.837C284.204,231.726,289.463,233.274,293.414,233.274z"/>
	<path fill-rule="evenodd" clip-rule="evenodd" fill="#2B4888" d="M376.95,244.973c0,11.993,0,11.993-12,11.993
		c-11.993,0-11.993,0-11.993-12c0-11.993,0-11.993,12.001-11.993C376.95,232.973,376.95,232.973,376.95,244.973z"/>
	<path fill-rule="evenodd" clip-rule="evenodd" fill="#2B4888" d="M136.805,316.636c0.18-11.672,0.181-11.745,12.01-11.631
		c3.921,0.038,9.049-1.756,11.446,0.774c2.359,2.49,0.656,7.573,0.686,11.512c0.087,11.666,0.031,11.739-11.798,11.625
		c-3.921-0.038-9.238,1.781-11.384-0.79C135.749,325.71,136.994,320.575,136.805,316.636z"/>
	<path fill-rule="evenodd" clip-rule="evenodd" fill="#2B4888" d="M220.687,329.148c-11.711-0.191-11.78-0.192-11.672-11.985
		c0.036-3.925-1.736-9.044,0.755-11.461c2.47-2.396,7.562-0.674,11.498-0.705c11.701-0.093,11.771-0.032,11.662,11.761
		c-0.037,3.926,1.767,9.24-0.774,11.395C229.769,330.177,224.62,328.947,220.687,329.148z"/>
	<path fill-rule="evenodd" clip-rule="evenodd" fill="#2B4888" d="M292.511,328.655c-11.544,0.302-11.637,0.301-11.494-11.153
		c0.051-4.074-1.882-9.484,0.876-11.846c2.329-1.996,7.571-0.665,11.524-0.679c11.543-0.039,11.636-0.013,11.493,11.44
		c-0.051,4.075,1.883,9.508-0.879,11.838C301.722,330.203,296.464,328.655,292.511,328.655z"/>
	<path fill-rule="evenodd" clip-rule="evenodd" fill="#2B4888" d="M352.957,316.95c0-11.986,0-11.986,12.007-11.986
		c11.986,0,11.986,0,11.986,12.006c0,11.987,0,11.987-12.006,11.987C352.957,328.957,352.957,328.957,352.957,316.95z"/>
</g>
</svg>
